<?xml version="1.0" encoding="utf-8"?>
<svg id="note_32px" xmlns="http://www.w3.org/2000/svg" viewBox="0 0 32 32">
  <path d="M5.2,13.6c-1.1,0-2.7,0-3.8,0v5.8H3v-4.4c0,0,1.4,0,2,0c0.5,0.1,0.7,0.4,0.7,1c0,0.7,0,1.1,0,3.4h1.6c0,0,0-2.6,0-3.5C7.3,14.3,6.7,13.6,5.2,13.6z"/>
  <path d="M12.7,13.6c-1.6,0-2.9,1.3-2.9,2.9c0,1.6,1.3,2.9,2.9,2.9c1.6,0,2.9-1.3,2.9-2.9C15.6,14.9,14.3,13.6,12.7,13.6z M12.7,18.1c-0.8,0-1.5-0.7-1.5-1.5c0-0.8,0.7-1.5,1.5-1.5c0.8,0,1.5,0.7,1.5,1.5C14.3,17.4,13.6,18.1,12.7,18.1z"/>
  <path d="M31,16.5c0-1.6-1.3-2.9-2.9-2.9c-1.6,0-2.9,1.3-2.9,2.9c0,0.9,0.4,1.8,1.1,2.3c0.5,0.4,1.1,0.6,2,0.6c0.4,0,1.5-0.1,2.3-1L30,17.6c-0.3,0.2-1,0.6-1.5,0.6c-0.7,0-1.1-0.1-1.4-0.4c-0.2-0.2-0.3-0.4-0.4-0.8H31C31,16.8,31,16.7,31,16.5z M26.6,16c0.2-0.7,0.6-1.2,1.5-1.2c0.9,0,1.3,0.5,1.5,1.2H26.6z"/>
  <path d="M21.2,14.1h-1.5v1.6h-1.6v1.4h1.6v1.7h1.5v-1.7h1.6v-1.4h-1.6V14.1z"/>
</svg>
