<svg id="pdf_16px" xmlns="http://www.w3.org/2000/svg" width="16" height="16" viewBox="0 0 16 16">
  <path d="M4.60938 6.78906H5.57937C6.23937 6.78906 6.73938 7.01906 6.73938 7.71906C6.73938 8.39906 6.22937 8.69906 5.59937 8.69906H5.19938V9.74906H4.60938V6.78906ZM5.55937 8.22906C5.96937 8.22906 6.15938 8.05906 6.15938 7.71906C6.15938 7.37906 5.93937 7.25906 5.53937 7.25906H5.20938V8.22906H5.55937Z" style="fill:inherit;" />
  <path d="M7.03906 6.78906H7.84906C8.74906 6.78906 9.30906 7.25906 9.30906 8.25906C9.30906 9.25906 8.74906 9.74906 7.87906 9.74906H7.03906V6.78906ZM7.81906 9.26906C8.36906 9.26906 8.71906 8.96906 8.71906 8.24906C8.71906 7.52906 8.37906 7.24906 7.81906 7.24906H7.62906V9.25906H7.81906V9.26906Z" style="fill:inherit;" />
  <path d="M9.73828 6.78906H11.5583V7.27906H10.3283V8.04906H11.3783V8.54906H10.3283V9.74906H9.73828V6.78906Z" style="fill:inherit;" />
  <path d="M13 15H3V1H9.71L13 4.29V15ZM4 14H12V4.71L9.29 2H4V14Z" style="fill:inherit;" />
</svg>
