<svg id="radiobutton_checked_24px" xmlns="http://www.w3.org/2000/svg" viewBox="0 0 24 24"><path d="M12,16.65c1.3,0,2.4-.45,3.3-1.35,.9-.9,1.35-2,1.35-3.3s-.45-2.4-1.35-3.3c-.9-.9-2-1.35-3.3-1.35s-2.4,.45-3.3,1.35c-.9,.9-1.35,2-1.35,3.3s.45,2.4,1.35,3.3c.9,.9,2,1.35,3.3,1.35Zm0,5.35c-1.36667,0-2.65833-.2625-3.875-.7875s-2.27917-1.2417-3.1875-2.15-1.625-1.9708-2.15-3.1875c-.525-1.2167-.7875-2.5083-.7875-3.875s.2625-2.65833,.7875-3.875c.525-1.21667,1.24167-2.27917,2.15-3.1875s1.97083-1.625,3.1875-2.15c1.21667-.525,2.50833-.7875,3.875-.7875s2.6583,.2625,3.875,.7875c1.2167,.525,2.2792,1.24167,3.1875,2.15s1.625,1.97083,2.15,3.1875,.7875,2.50833,.7875,3.875-.2625,2.6583-.7875,3.875-1.2417,2.2792-2.15,3.1875-1.9708,1.625-3.1875,2.15-2.5083,.7875-3.875,.7875Zm0-1.5c2.3333,0,4.3333-.8333,6-2.5s2.5-3.6667,2.5-6-.8333-4.33333-2.5-6c-1.6667-1.66667-3.6667-2.5-6-2.5s-4.33333,.83333-6,2.5c-1.66667,1.66667-2.5,3.66667-2.5,6s.83333,4.3333,2.5,6c1.66667,1.6667,3.66667,2.5,6,2.5Z" style="fill:inherit;"/></svg>