<svg id="radiobutton_24px" xmlns="http://www.w3.org/2000/svg" viewBox="0 0 24 24"><path d="M12,22c-1.36667,0-2.65833-.2625-3.875-.7875s-2.27917-1.2417-3.1875-2.15-1.625-1.9708-2.15-3.1875c-.525-1.2167-.7875-2.5167-.7875-3.9,0-1.36667,.2625-2.65833,.7875-3.875,.525-1.21667,1.24167-2.275,2.15-3.175,.90833-.9,1.97083-1.6125,3.1875-2.1375,1.21667-.525,2.51667-.7875,3.9-.7875,1.3667,0,2.6583,.2625,3.875,.7875,1.2167,.525,2.275,1.2375,3.175,2.1375,.9,.9,1.6125,1.95833,2.1375,3.175s.7875,2.51667,.7875,3.9c0,1.3667-.2625,2.6583-.7875,3.875s-1.2375,2.2792-2.1375,3.1875c-.9,.9083-1.9583,1.625-3.175,2.15-1.2167,.525-2.5167,.7875-3.9,.7875Zm0-1.5c2.3667,0,4.375-.8292,6.025-2.4875,1.65-1.6583,2.475-3.6625,2.475-6.0125,0-2.36667-.825-4.375-2.475-6.025-1.65-1.65-3.6583-2.475-6.025-2.475-2.35,0-4.35417,.825-6.0125,2.475-1.65833,1.65-2.4875,3.65833-2.4875,6.025,0,2.35,.82917,4.3542,2.4875,6.0125,1.65833,1.6583,3.6625,2.4875,6.0125,2.4875Z" style="fill:inherit;"/></svg>