<svg id="search_24px" xmlns="http://www.w3.org/2000/svg" width="24" height="24" viewBox="0 0 24 24">
  <path d="M19.55,20.6l-6.3-6.275c-.50001,.4167-1.07501,.7417-1.72501,.975-.65,.2333-1.31666,.35-2,.35-1.71666,0-3.16666-.5917-4.35-1.775-1.18333-1.18333-1.775-2.63333-1.775-4.35,0-1.7,.59167-3.146,1.775-4.338,1.18334-1.19133,2.63334-1.787,4.35-1.787,1.7,0,3.14167,.59167,4.32501,1.775,1.1833,1.18333,1.775,2.63333,1.775,4.35,0,.71667-.1167,1.4-.35,2.05-.2333,.65-.55,1.21667-.95,1.7l6.275,6.275-1.05,1.05Zm-10.02501-6.45c1.28334,0,2.371-.45,3.263-1.35,.89131-.9,1.33701-1.99167,1.33701-3.275s-.4457-2.375-1.33701-3.275c-.892-.9-1.97966-1.35-3.263-1.35-1.3,0-2.39566,.45-3.287,1.35-.892,.9-1.338,1.99167-1.338,3.275s.446,2.375,1.338,3.275c.89134,.9,1.987,1.35,3.287,1.35Z" style="fill:inherit" />
</svg>