<svg id="twitter_30px" xmlns="http://www.w3.org/2000/svg" width="32" height="27" viewBox="0 0 32 27">
  <path d="M28.6386 7.28472C28.6579 7.56472 28.6579 7.84472 28.6579 8.1273C28.6579 16.7376 22.1031 26.6679 10.1173 26.6679V26.6628C6.57665 26.6679 3.10955 25.6538 0.128906 23.7415C0.643745 23.8034 1.16116 23.8344 1.67987 23.8357C4.61407 23.8383 7.46439 22.8538 9.77278 21.0408C6.98439 20.9879 4.53923 19.1699 3.68504 16.5157C4.66181 16.7041 5.66826 16.6654 6.62697 16.4034C3.58697 15.7892 1.39987 13.1183 1.39987 10.0163C1.39987 9.98794 1.39987 9.96085 1.39987 9.93375C2.30568 10.4383 3.31987 10.7183 4.35729 10.7492C1.49407 8.83569 0.611487 5.02665 2.34052 2.04859C5.64891 6.11956 10.5302 8.5944 15.7702 8.85633C15.245 6.59311 15.9625 4.22149 17.6554 2.63052C20.2799 0.163428 24.4076 0.289879 26.8747 2.91311C28.3341 2.62536 29.7328 2.08988 31.0128 1.33117C30.5263 2.83956 29.5083 4.12085 28.1483 4.93504C29.4399 4.78278 30.7018 4.43698 31.8902 3.90923C31.0154 5.2202 29.9134 6.36214 28.6386 7.28472Z" style="fill:#1D9BF0;" />
</svg>
