<svg id="twitter_32px" xmlns="http://www.w3.org/2000/svg" width="32" height="32" viewBox="0 0 32 32">
  <circle cx="16" cy="16" r="16" style="fill:#1b9df0" />
  <path d="M13.1,24.4A10.8,10.8,0,0,0,24,13.5V13a12.6,12.6,0,0,0,2-2,9,9,0,0,1-2.2.6,3.6,3.6,0,0,0,1.6-2.2,6.4,6.4,0,0,1-2.4,1,3.6,3.6,0,0,0-2.8-1.2A3.9,3.9,0,0,0,16.3,13c0,.3.1.6.1.9a11.1,11.1,0,0,1-7.9-4A3.8,3.8,0,0,0,8,11.8,3.7,3.7,0,0,0,9.7,15a3.7,3.7,0,0,1-1.8-.5h0A4.1,4.1,0,0,0,11,18.4H9.3a3.7,3.7,0,0,0,3.6,2.7,8,8,0,0,1-4.8,1.7H7.2a10.7,10.7,0,0,0,5.9,1.7" style="fill:#fff" />
</svg>
