<?xml version="1.0" encoding="UTF-8"?>
<svg id="youtube_32px" xmlns="http://www.w3.org/2000/svg">
  <symbol viewBox="0 0 32 22.55">
    <g id="shape">
      <path d="M31.33,3.53c-.36-1.38-1.45-2.47-2.84-2.85-2.49-.67-12.49-.67-12.49-.67,0,0-10,0-12.51,.67-1.38,.36-2.45,1.45-2.84,2.85-.65,2.51-.65,7.75-.65,7.75,0,0,0,5.24,.67,7.75,.36,1.38,1.45,2.47,2.84,2.85,2.49,.67,12.49,.67,12.49,.67,0,0,10,0,12.51-.67,1.38-.36,2.45-1.45,2.84-2.85,.65-2.51,.65-7.75,.65-7.75,0,0,0-5.24-.67-7.75Z"/>
    </g>
    <g id="triangle">
      <polygon points="12.73 16.04 12.73 6.51 21.09 11.27 12.73 16.04"/>
    </g>
  </symbol>
</svg>
