<svg id="logos" xmlns="http://www.w3.org/2000/svg" viewBox="0 0 1746.36 320"><defs><style>.cls-1{fill:#252020;}</style></defs><path id="Digital_Agency_Logo_Black_JA" class="cls-1" d="M261,121.88c7.3,0,22.59-.69,31.63-2.08V165c-8.69-.69-21.9-1-31.63-1H177.26c-2.08,35.8-9.73,65-22.24,89.33-12.17,24-38.93,51.09-69.86,66.73L44.49,290.45c24.68-9.38,49-29.19,62.91-49.7,14.25-21.55,20.16-47.62,21.55-76.81H33.37c-10.08,0-23.64.69-33.37,1.39V119.8a264.7,264.7,0,0,0,33.37,2.08ZM77.51,74.61c-11.82,0-26.77.35-37.19,1V30.82A261.14,261.14,0,0,0,77.51,33.6H186.2a274.09,274.09,0,0,0,37.54-2.78V75.65c-11.82-.69-25.37-1-37.54-1Zm217.11-2.53L264.38,84.94C254.3,63,246.3,48.1,233.79,30.37L262.64,18.2A524.3,524.3,0,0,1,294.62,72.08Zm48.66-18.77L313.73,66.52a333.28,333.28,0,0,0-32.67-52.83L310.61,1.52C321.38,15.42,334.94,38,343.28,53.31Zm674.56,18.17a164.3,164.3,0,0,0-11.47,24.68,399.92,399.92,0,0,1-48,95.24c12.86,8,24.68,16,33.36,22.24l-31.63,40.67c-8.34-7.3-19.46-15.64-32.32-24.68-30.93,33.71-72,65-128.26,86.55l-40.31-35.11C820.77,262.3,860,232.76,888.89,203.21c-23.63-15.29-47.27-29.54-65-39.62l29.54-33c18.42,9.39,42.06,22.59,65.34,36.5,17-24.68,30.94-53.18,36.15-74H855.18c-24.33,32.33-56.66,65.69-91.76,89.68l-37.54-28.85c61.17-37.54,93.5-85.16,110.88-115.4C842,30.12,849.27,14.13,852.4,2l50.39,15.64c-8.34,12.16-17.37,28.15-21.54,35.45l-.35.35h71.25c10.78,0,22.59-1.39,30.24-3.83Zm42,208.9c30.59-21.56,49.36-53.53,59.09-83.07,9.73-29.9,10.08-98.07,10.08-140.13,0-13.9-1-23.29-3.13-31.63H1177a223.09,223.09,0,0,0-2.43,31.28c0,41-1,116.84-10.43,152a201.3,201.3,0,0,1-61.86,99.75Zm160.93,5.21a132.38,132.38,0,0,0,2.78-25.72V54.75a153.85,153.85,0,0,0-2.78-29.89h51.79c-.35,1-2.43,14.6-2.43,30.24V239.36c28.15-12.16,62.56-39.62,85.85-73.34l26.76,38.24c-28.85,37.54-78.9,75.07-117.83,94.88-7.3,3.83-10.77,7-15.29,10.43ZM1746.36,39.17V78H1496.69v48c0,54.16-4.78,137.61-33.73,190.41-7.83-6.81-28-18.73-37.9-22.48,26.57-48.71,28.61-119.22,28.61-167.93V39.17h125.44V0h42.24V39.17Zm-229.75,78.69H1743V156h-86V272.84c0,22.14-5.1,33-20.77,38.83-15.67,6.13-41.79,6.47-72.78,6.47-2-11.58-8.52-28.95-14.31-39.85,21.8,1,47.35.68,54.16.68,6.47,0,8.86-1.7,8.86-7.15V156h-95.55ZM475,148.25,449.6,187.18c-19.82-13.9-56-37.19-79.25-49.7l25-38.24C419,111.76,457.24,135.74,475,148.25Zm27.81,79.25c59.08-33,107.74-80.64,135.2-130.34l26.77,47.27c-32,48.31-81.34,92.1-138,125.12-35.45,19.82-85.51,37.2-116.09,42.76L384.6,266.77C423.53,260.17,465.24,248.35,502.78,227.5ZM528.15,69.7l-25.72,38.23C483,94.38,446.82,71.09,423.88,58.23L448.9,20C471.84,32.51,510.07,57.18,528.15,69.7ZM631.73,80.47,601.49,93.33c-10.08-21.89-18.08-36.84-30.59-54.57L599.75,26.6A524.15,524.15,0,0,1,631.73,80.47ZM680.39,61.7,650.84,74.91a333.74,333.74,0,0,0-32.67-52.83L647.72,9.92C658.49,23.82,672.05,46.41,680.39,61.7Z"/></svg>